Coordinates
version=1
nRows=32
nColumns=12
inDegrees=yes

Units are S.I. units (second, meters, Newtons, ...)
Angles are in degrees

endheader
time	SC_y	SC_z	SC_x	AC_y	AC_z	AC_x	GH_y	GH_z	GH_yy	EL_x	PS_y
       0.0              -19.06          4.728          51.67          35.24          1.312          2.585          7.769           33.4         -97.06           34.1          70.26
   0.03653              -19.06          4.731          51.66          35.24          1.312          2.586          7.786           33.4         -97.03          34.12          70.27
   0.07307              -19.06          4.734          51.66          35.24          1.312          2.587          7.805           33.4         -96.99          34.13          70.28
    0.1096              -19.07          4.737          51.65          35.24          1.312          2.589          7.824           33.4         -96.94          34.14           70.3
    0.1461              -19.07          4.741          51.65          35.24          1.313           2.59          7.845          33.41          -96.9          34.16          70.31
    0.1827              -19.07          4.744          51.65          35.25          1.313          2.591          7.868          33.41         -96.85          34.17          70.32
    0.2192              -19.08          4.748          51.64          35.25          1.313          2.593          7.892          33.41          -96.8          34.19          70.34
    0.2557              -19.08          4.753          51.64          35.25          1.313          2.594          7.917          33.41         -96.74          34.21          70.36
    0.2923              -19.09          4.757          51.63          35.25          1.314          2.596          7.945          33.41         -96.68          34.22          70.37
    0.3288              -19.09          4.762          51.63          35.25          1.314          2.597          7.974          33.42         -96.62          34.24          70.39
    0.3653               -19.1          4.767          51.62          35.25          1.314          2.599          8.006          33.42         -96.55          34.27          70.41
    0.4019               -19.1          4.773          51.61          35.25          1.315          2.601          8.039          33.42         -96.48          34.29          70.44
    0.4384              -19.11          4.779          51.61          35.25          1.315          2.604          8.076          33.42          -96.4          34.31          70.46
    0.4749              -19.11          4.786           51.6          35.25          1.316          2.606          8.116          33.43         -96.32          34.34          70.49
    0.5115              -19.12          4.793          51.59          35.25          1.316          2.608          8.158          33.43         -96.22          34.37          70.51
     0.548              -19.13          4.801          51.58          35.25          1.317          2.611          8.205          33.43         -96.12           34.4          70.54
    0.5845              -19.14          4.809          51.57          35.25          1.317          2.614          8.255          33.44         -96.02          34.43          70.58
    0.6211              -19.15          4.819          51.56          35.25          1.318          2.617           8.31          33.44          -95.9          34.47          70.61
    0.6576              -19.15          4.829          51.55          35.25          1.318          2.621           8.37          33.44         -95.77          34.51          70.65
    0.6941              -19.17           4.84          51.53          35.25          1.319          2.625          8.436          33.45         -95.63          34.56          70.69
    0.7307              -19.18          4.852          51.52          35.25           1.32          2.629          8.508          33.45         -95.47          34.61          70.74
    0.7672              -19.19          4.865          51.51          35.25          1.321          2.634          8.587          33.46          -95.3          34.66          70.79
    0.8037               -19.2           4.88          51.49          35.25          1.322          2.639          8.675          33.47         -95.11          34.72          70.85
    0.8403              -19.22          4.896          51.47          35.25          1.323          2.645          8.772          33.47          -94.9          34.78          70.91
    0.8768              -19.24          4.914          51.45          35.25          1.324          2.651           8.88          33.48         -94.67          34.86          70.99
    0.9133              -19.26          4.934          51.42          35.26          1.326          2.658            9.0          33.49         -94.41          34.94          71.06
    0.9499              -19.28          4.957           51.4          35.26          1.327          2.666          9.135           33.5         -94.12          35.03          71.15
    0.9864               -19.3          4.982          51.37          35.26          1.329          2.675          9.287          33.51         -93.79          35.13          71.25
     1.023              -19.33          5.011          51.33          35.26          1.331          2.685          9.458          33.52         -93.42          35.25          71.36
     1.059              -19.36          5.044           51.3          35.26          1.333          2.697          9.653          33.54         -93.01          35.38          71.49
     1.096              -19.39          5.081          51.25          35.26          1.336           2.71          9.875          33.56         -92.53          35.53          71.64
     1.133              -19.44          5.124           51.2          35.27          1.338          2.725          10.13          33.57         -91.98           35.7           71.8
